<svg width="343" height="266" viewBox="0 0 343 266" fill="none" xmlns="http://www.w3.org/2000/svg">
<path d="M260.309 121.335C257.018 100.375 239.869 84.4022 219.21 84.4022H134.72C114.069 84.4022 96.9236 100.362 93.6214 121.31C93.2402 123.705 93.0436 126.169 93.0436 128.68V206.89C93.0436 209.401 93.2402 211.861 93.6214 214.256C96.2495 230.945 107.669 244.471 122.651 249.276C126.471 250.503 130.523 251.164 134.72 251.164H219.21C223.407 251.164 227.459 250.503 231.279 249.276C246.265 244.467 257.688 230.933 260.309 214.231C260.686 211.844 260.882 209.393 260.882 206.89V128.68C260.882 126.178 260.686 123.723 260.309 121.335ZM226.36 249.276C224.036 249.715 221.649 249.945 219.21 249.945H134.72C132.281 249.945 129.893 249.715 127.57 249.276C108.6 245.69 94.1952 228.077 94.1952 206.89V180.93C94.1952 107.575 150.164 85.6256 219.21 85.6256C241.591 85.6256 259.735 104.902 259.735 128.68V206.89C205.403 214.615 245.33 245.69 226.36 249.276V249.276Z" fill="#3F3D56"/>
<path d="M193.777 143.421L197.028 165.868L244.701 158.961L240.097 132.735L193.777 143.421Z" fill="#009EDD"/>
<path d="M231.193 17.4636H211.482V39.1398H231.193V17.4636Z" fill="#2F2E41"/>
<path d="M213.28 40.3962L218.156 24.8562H227.66L228.159 40.3962H213.28Z" fill="#FFB6B6"/>
<path opacity="0.1" d="M213.28 40.3962L218.156 24.8562H227.66L228.159 40.3962H213.28Z" fill="black"/>
<path d="M218.427 178.818L217.885 238.675L217.343 243.28V249.89L225.47 250.762L226.011 237.524C226.011 237.524 234.679 211.624 232.512 191.48C230.345 171.335 231.429 177.091 231.429 177.091L218.427 178.818Z" fill="#FFB6B6"/>
<path d="M223.585 183.518L203.594 239.485L202.522 243.983L200.259 250.14L192.391 247.812L196.419 235.272C196.419 235.272 197.213 207.796 206.129 189.869C215.046 171.943 212.066 176.885 212.066 176.885L223.585 183.518V183.518Z" fill="#FFB6B6"/>
<path d="M213.28 38.6696L198.653 45.5763L207.993 96.8078L206.517 170.338L196.766 192.21C196.766 192.21 195.132 204.718 211.926 196.66C228.72 188.602 247.681 186.3 247.681 186.3L243.076 152.63L239.013 64.2819L239.555 44.7129L227.637 36.6552L213.28 38.6696V38.6696Z" fill="#2F2E41"/>
<path d="M205.134 193.009L188.902 164.141L207.451 96.8077L198.653 45.5763L214.088 38.5563C214.088 38.5563 222.078 46.8227 222.078 53.641C222.078 60.4593 205.134 193.009 205.134 193.009V193.009Z" fill="#E6E6E6"/>
<path d="M240.347 187.253L225.613 52.7872C225.427 51.0893 225.7 49.3702 226.4 47.831L230.616 38.5563L247.139 43.5618L240.497 98.5344L258.245 152.63L240.347 187.253H240.347Z" fill="#E6E6E6"/>
<path d="M227.095 249.611C227.095 249.611 216.802 243.28 215.718 246.733C214.635 250.187 214.093 253.064 214.093 253.064C214.093 253.064 211.384 264 219.51 264C227.637 264 227.095 259.026 227.095 259.026V249.611Z" fill="#2F2E41"/>
<path d="M191.271 246.111C191.271 246.111 203.027 244.192 202.854 247.828C202.681 251.463 202.2 254.353 202.2 254.353C202.2 254.353 200.979 265.586 193.409 262.446C185.84 259.305 188.047 254.882 188.047 254.882L191.271 246.111V246.111Z" fill="#2F2E41"/>
<path d="M223.541 33.314C230.979 33.314 237.009 26.9079 237.009 19.0057C237.009 11.1034 230.979 4.69739 223.541 4.69739C216.103 4.69739 210.074 11.1034 210.074 19.0057C210.074 26.9079 216.103 33.314 223.541 33.314Z" fill="#FFB6B6"/>
<path d="M234.302 6.25495C233.675 2.72716 230.266 0.34103 226.899 0.0418153C223.531 -0.257399 220.233 1.09351 217.2 2.67741C215.144 3.7511 213.12 4.96128 211.455 6.63253C209.79 8.30378 208.497 10.487 208.198 12.8998C208.093 13.7535 208.106 14.6454 207.777 15.4324C207.367 16.4154 206.485 17.0831 205.952 17.998C204.998 19.6389 205.436 22.0261 206.902 23.1651C205.059 23.9991 203.167 24.8691 201.763 26.3857C200.358 27.9022 199.547 30.2437 200.318 32.2072C200.591 32.9019 201.041 33.51 201.274 34.2207C201.717 35.5704 201.295 37.1038 200.511 38.2645C199.726 39.4253 198.618 40.286 197.53 41.1263C200.327 41.7087 203.181 42.1624 206.019 41.8907C208.857 41.6191 211.706 40.5623 213.761 38.4652C215.817 36.368 216.947 33.133 216.21 30.2086C215.645 27.9683 214.065 26.0053 214.066 23.686C214.067 21.9033 215.01 20.2951 215.921 18.798L221.891 8.9894C222.249 8.40127 222.626 7.79267 223.192 7.43295C224.154 6.82098 225.402 7.0901 226.416 7.59803C227.431 8.10597 228.357 8.83471 229.439 9.14965C231.646 9.79241 234.207 8.3163 234.903 5.99985" fill="#2F2E41"/>
<path d="M226.346 35.3536C225.224 36.5083 223.606 36.8802 222.107 37.348C220.609 37.8159 219.014 38.5518 218.34 40.0488C217.678 41.5167 218.158 43.3801 219.253 44.518C220.349 45.656 221.94 46.1353 223.471 46.1128C225.003 46.0902 226.496 45.6132 227.936 45.0594C231.875 43.5452 235.605 41.4211 238.973 38.7749C236.792 38.1337 235.365 35.4274 235.989 33.116C236.497 31.2358 238.05 29.9244 239.107 28.3227C240.927 25.565 241.231 21.9297 240.628 18.623C240.025 15.3163 238.606 12.2511 237.202 9.23132C236.758 8.27674 236.304 7.30601 235.612 6.5363C234.919 5.76661 233.939 5.21518 232.942 5.32545C231.288 5.50845 230.232 7.43768 230.22 9.20453C230.209 10.9714 230.939 12.6319 231.492 14.2981C232.062 16.0148 232.458 17.8344 232.305 19.6475C232.177 21.1669 231.657 22.6469 230.817 23.8838C230.168 24.8389 229.341 25.6405 228.635 26.5492C228.089 27.2517 227.605 28.0474 227.462 28.9453C227.201 30.5794 228.103 32.2328 227.856 33.8693C227.595 35.5992 225.881 36.9236 224.251 36.6555" fill="#2F2E41"/>
<path d="M185.156 235.198C210.588 235.198 231.205 213.295 231.205 186.276C231.205 159.257 210.588 137.353 185.156 137.353C159.725 137.353 139.108 159.257 139.108 186.276C139.108 213.295 159.725 235.198 185.156 235.198Z" fill="#009EDD"/>
<path d="M198.014 136.518C197.456 140.758 194.945 143.889 192.405 143.511C189.866 143.134 188.26 139.391 188.818 135.15C189.019 133.453 189.6 131.831 190.512 130.421L193.089 112.489L200.983 113.953L197.605 131.476C198.119 133.098 198.259 134.827 198.014 136.518V136.518Z" fill="#FFB6B6"/>
<path d="M204.883 44.7129C204.883 44.7129 196.757 41.8351 195.674 52.1951C194.59 62.5551 193.507 75.2174 193.507 75.2174C193.507 75.2174 188.631 87.3041 190.798 93.6352C192.965 99.9663 196.757 95.5522 192.965 100.925C189.173 106.297 189.701 123.974 189.701 123.974L201.904 123.322C201.904 123.322 208.675 75.7929 208.675 74.6418C208.675 73.4907 204.883 44.7129 204.883 44.7129V44.7129Z" fill="#E6E6E6"/>
<path d="M257.703 134.594C257.854 138.872 255.899 142.422 253.336 142.524C250.774 142.625 248.575 139.24 248.424 134.961C248.342 133.252 248.646 131.548 249.311 129.99L248.887 111.855L256.901 111.825L256.468 129.705C257.242 131.207 257.665 132.883 257.703 134.594V134.594Z" fill="#FFB6B6"/>
<path d="M245.193 44.5186C245.193 44.5186 253.367 41.7955 254.276 52.1744C255.185 62.5533 256.055 81.5653 256.055 81.5653C256.055 81.5653 260.727 93.7426 258.454 100.032C256.181 106.321 252.463 101.835 256.164 107.279C259.866 112.723 258.537 128.074 258.537 128.074L246.348 127.19C246.348 127.19 240.879 81.8528 240.898 80.7019C240.918 79.5509 245.193 44.5186 245.193 44.5186V44.5186Z" fill="#E6E6E6"/>
<path d="M217.891 182.332H211.096C210.039 175.702 206.777 169.699 201.906 165.417C190.696 155.562 174.102 157.246 164.843 169.177C164.812 169.215 164.781 169.254 164.752 169.294C164.012 170.315 164.19 171.78 165.149 172.568C166.108 173.355 167.485 173.166 168.225 172.146C172.247 166.959 178.335 163.659 185.143 163.659C195.565 163.66 204.548 171.464 206.636 182.332H200.644C200.388 182.332 200.14 182.427 199.943 182.602C199.477 183.015 199.414 183.75 199.802 184.246L208.425 195.263C208.467 195.317 208.514 195.367 208.565 195.412C209.03 195.824 209.722 195.758 210.109 195.263L218.733 184.246C218.897 184.036 218.987 183.772 218.987 183.499C218.987 182.855 218.496 182.332 217.891 182.332V182.332V182.332Z" fill="white"/>
<path d="M205.137 201.432C204.178 200.645 202.801 200.834 202.061 201.854C198.87 205.966 194.454 208.791 189.545 209.861C177.674 212.447 166.081 204.302 163.65 191.668H169.642C170.247 191.668 170.738 191.145 170.738 190.501C170.738 190.228 170.648 189.964 170.484 189.754L161.86 178.737C161.473 178.242 160.781 178.175 160.316 178.588C160.265 178.633 160.218 178.683 160.176 178.737L151.553 189.754C151.165 190.25 151.228 190.985 151.694 191.398C151.89 191.573 152.139 191.668 152.395 191.668H159.189C160.246 198.298 163.508 204.301 168.379 208.583C179.59 218.438 196.183 216.754 205.442 204.823C205.474 204.785 205.504 204.746 205.533 204.706C206.273 203.685 206.096 202.22 205.137 201.432H205.137V201.432Z" fill="white"/>
<path d="M381.5 264.442H-38.5V265.802H381.5V264.442Z" fill="#3F3D56"/>
</svg>
